<svg xmlns="http://www.w3.org/2000/svg" xmlns:xlink="http://www.w3.org/1999/xlink" width="60.002" height="60" viewBox="0 0 60.002 60"><defs><style>.a{fill:url(#a);}.b{fill:none;}</style><linearGradient id="a" x1="0.5" y1="-0.143" x2="0.5" y2="1.154" gradientUnits="objectBoundingBox"><stop offset="0" stop-color="#df4f04"/><stop offset="1" stop-color="#f70"/></linearGradient></defs><g transform="translate(6.304 6.304)"><g transform="translate(0 0)"><path class="a" d="M31.374,46.307a14.587,14.587,0,0,1-9.556-3.561H4.051A4.137,4.137,0,0,1,1.044,41.68,4.1,4.1,0,0,1,0,38.69V4.039A4.088,4.088,0,0,1,1.044,1.05,4.029,4.029,0,0,1,4.019,0H38.494a4.1,4.1,0,0,1,2.974,1.05,4.021,4.021,0,0,1,1.06,2.942V21.961A14.767,14.767,0,0,1,31.374,46.307Zm0-27.479A12.714,12.714,0,1,0,44.048,31.55,12.7,12.7,0,0,0,31.374,18.828ZM2.025,22.39v16.3a2.064,2.064,0,0,0,.458,1.543,2.141,2.141,0,0,0,1.567.477H19.887a14.785,14.785,0,0,1,0-18.319ZM4.019,2.036A2.283,2.283,0,0,0,2.484,2.5a2.3,2.3,0,0,0-.458,1.543V20.355H20.236V2.036ZM31.374,16.777A14.457,14.457,0,0,1,40.5,20v-16A2.055,2.055,0,0,0,40.044,2.5a2.127,2.127,0,0,0-1.55-.461H22.262V19.989A14.45,14.45,0,0,1,31.374,16.777Zm-17.4,18.651a1.015,1.015,0,0,1-.72-.284l-2.136-2.162L8.971,35.144a1.053,1.053,0,0,1-1.439,0,1.066,1.066,0,0,1,0-1.447L9.667,31.55,7.532,29.386c-.353-.624-.346-1.123.021-1.483a1.144,1.144,0,0,1,.679-.259,1.217,1.217,0,0,1,.739.3l2.152,2.146,2.136-2.146a1.5,1.5,0,0,1,.793-.267,1.092,1.092,0,0,1,.642.221,1.061,1.061,0,0,1,0,1.492L12.547,31.55,14.7,33.7a1.066,1.066,0,0,1,0,1.447A1.015,1.015,0,0,1,13.978,35.428ZM27.3,34.6a1.057,1.057,0,0,1-1.019-.972,1.022,1.022,0,0,1,.276-.726,1.01,1.01,0,0,1,.689-.339h8.209a1.018,1.018,0,0,1,0,2.036H27.3Zm-.022-4.071a1.019,1.019,0,0,1-.063-2.037h8.222a1.018,1.018,0,0,1,0,2.036h-8.16Zm4.1-14.235a1.008,1.008,0,0,1-.707-.313,1.02,1.02,0,0,1-.305-.72V12.213H27.277a1.019,1.019,0,0,1-.063-2.037h3.148V7.124a1.052,1.052,0,0,1,.885-1.033h.007a1.214,1.214,0,0,1,.881.311.958.958,0,0,1,.252.722v3.054h3.05a1.018,1.018,0,0,1,0,2.036H32.387v3.052a1.022,1.022,0,0,1-.306.721A1.011,1.011,0,0,1,31.374,16.3ZM7.025,12.214a1.019,1.019,0,0,1-.063-2.037h8.225a1.018,1.018,0,0,1,0,2.036H7.025Z" transform="translate(0 0)"/></g></g><rect class="b" width="60.002" height="60"/></svg>